<?xml version="1.0" encoding="utf-8"?>
<!-- Generator: Adobe Illustrator 16.0.4, SVG Export Plug-In . SVG Version: 6.00 Build 0)  -->
<!DOCTYPE svg PUBLIC "-//W3C//DTD SVG 1.1//EN" "http://www.w3.org/Graphics/SVG/1.1/DTD/svg11.dtd">
<svg version="1.1" id="Layer_1" xmlns="http://www.w3.org/2000/svg" xmlns:xlink="http://www.w3.org/1999/xlink" x="0px" y="0px"
	 width="385.6px" height="73.6px" viewBox="0 0 385.6 73.6" enable-background="new 0 0 385.6 73.6" xml:space="preserve">
<g>
	<g>
		<path fill="#FF5000" d="M63.3,27.9c-4,2.2-8,3.3-12.1,3.3c-4.2,0-9.9-1.6-17.1-4.9c-7.2-3.3-12.7-4.9-16.3-4.9
			c-3.9,0-7.1,0.8-9.6,2.3S3,27.6,0.1,30.9V13.2c2.7-2.4,5.4-4.3,8.2-5.8c2.8-1.5,6-2.2,9.6-2.2c4.2,0,9.9,1.6,17.1,4.9
			c7.3,3.3,12.4,4.9,15.5,4.9c3.7,0,7.1-0.9,10.2-2.6c3.1-1.7,5.9-4,8.4-7v18.1C67.7,25.1,65.8,26.6,63.3,27.9z M8.4,36.4
			c2.6-1.3,5.9-2,9.6-2c4.2,0,9.9,1.6,17.2,4.9c7.3,3.3,12.4,4.9,15.5,4.9c4.6,0,9-1.5,13.2-4.4c2.1-1.5,3.9-3.2,5.4-5.1v18.2
			c-2,1.8-4.3,3.4-6.8,4.7c-3.7,1.9-7.5,2.9-11.2,2.9c-4.3,0-10-1.6-17-4.8c-7-3.2-12.5-4.8-16.4-4.8c-3.9,0-7.1,0.7-9.5,2.1
			s-5.2,3.8-8.2,7.3V42.3C3,39.7,5.7,37.7,8.4,36.4z"/>
	</g>
	<g>
		<path fill="#FF5000" d="M117.2,23c0,9.7-4.4,13.4-13.1,13.4c-8.9,0-12.8-4.9-12.8-12.6v-2.9h9.7v2c0,2.7,0,5.2,2.9,5.2
			c2.8,0,2.6-3.4,2.6-4.9V0.6h10.8V23z"/>
		<path fill="#FF5000" d="M144.7,23c0,9.7-4.4,13.4-13.1,13.4c-8.9,0-12.8-4.9-12.8-12.6v-2.9h9.7v2c0,2.7,0,5.2,2.9,5.2
			c2.8,0,2.6-3.4,2.6-4.9V0.6h10.8V23z"/>
		<path fill="#FF5000" d="M168.4,0.6H179l12.7,35h-11.2l-1.5-5h-11.1l-1.6,5h-10.8L168.4,0.6z M176.9,23.1l-3.1-10.8h-0.1l-3.4,10.8
			H176.9z"/>
		<path fill="#FF5000" d="M218,35.6h-9.4v-2.8h-0.1c-1.2,1.6-2.7,3.4-7.4,3.4c-7.2,0-10.7-7.1-10.7-13.5c0-6,2.3-13.2,10.8-13.2
			c2.9,0,5.5,1.3,7,3.4h0.1V0.6h9.7V35.6z M204.3,16.6c-3.5,0-4.3,3.3-4.3,6.3c0,3,0.8,6.3,4.3,6.3c3.5,0,4.3-3.3,4.3-6.3
			C208.6,19.9,207.8,16.6,204.3,16.6z"/>
		<path fill="#FF5000" d="M237.5,35.6H226l-8.3-25.4h10.2l4,15.5h0.1l4-15.5h9.9L237.5,35.6z"/>
		<path fill="#FF5000" d="M270.4,29.9c0,1.9,0.1,4.1,1.2,5.7h-9.9c-0.2-0.7-0.4-1.7-0.3-2.4h-0.1c-2.1,2.4-5,3-8.2,3
			c-4.9,0-9-2.4-9-7.7c0-8,9.4-7.7,14.4-8.7c1.3-0.2,2.6-0.6,2.6-2.3c0-1.7-1.6-2.4-3.2-2.4c-3,0-3.6,1.5-3.6,2.6h-9
			c0.3-7.2,7.1-8.3,13.1-8.3c12.2,0,12.1,5,12.1,9.9V29.9z M261.1,24.2c-1.2,0.6-2.5,0.9-3.8,1.2c-2.2,0.5-3.3,1-3.3,2.7
			c0,1.2,1.3,2.4,3,2.4c2.2,0,3.9-1.3,4.1-4V24.2z"/>
		<path fill="#FF5000" d="M273.1,10.2h9.4v3.2h0.1c1.8-2.5,4.4-3.9,8.3-3.9c4.6,0,8.7,2.8,8.7,8.6v17.4h-9.7V22.3c0-2.9-0.3-5-3.2-5
			c-1.7,0-3.9,0.8-3.9,4.9v13.4h-9.7V10.2z"/>
		<path fill="#FF5000" d="M318.8,19.8c-0.1-1-0.4-1.9-1.1-2.4c-0.6-0.5-1.4-0.8-2.5-0.8c-3.7,0-4.3,3.2-4.3,6.3s0.5,6.3,4.3,6.3
			c2.1,0,3.6-1.7,3.8-3.7h9.3c-0.9,6.9-6.4,10.8-13.2,10.8c-7.6,0-13.8-5.3-13.8-13.3s6.1-13.4,13.8-13.4c6.7,0,12.3,3.3,12.9,10.3
			H318.8z"/>
		<path fill="#FF5000" d="M338.1,25.1c0.2,2.9,1.9,4.9,4.9,4.9c1.6,0,3.3-0.6,4.1-1.8h9.1c-2,5.5-7.3,8-13.1,8
			c-8.1,0-14.3-4.8-14.3-13.3c0-7.4,5.4-13.4,13.4-13.4c10.1,0,14.5,5.6,14.5,15.5H338.1z M347.4,20c0-2.4-1.8-4.3-4.3-4.3
			c-2.9,0-4.6,1.5-5,4.3H347.4z"/>
		<path fill="#FF5000" d="M384.7,35.6h-9.4v-2.8h-0.1c-1.2,1.6-2.7,3.4-7.4,3.4c-7.2,0-10.7-7.1-10.7-13.5c0-6,2.3-13.2,10.8-13.2
			c2.9,0,5.5,1.3,7,3.4h0.1V0.6h9.7V35.6z M371.1,16.6c-3.5,0-4.3,3.3-4.3,6.3c0,3,0.8,6.3,4.3,6.3c3.5,0,4.3-3.3,4.3-6.3
			C375.4,19.9,374.6,16.6,371.1,16.6z"/>
	</g>
	<g>
		<path fill="#FFFFFF" d="M91.9,43.1h12.5c6.6,0,8.9,4.8,8.9,8.3c0,5.9-3.9,8.6-9.5,8.6h-4.4v7.3h-7.5V43.1z M99.4,54.2h2.9
			c1.9,0,4-0.1,4-2.6c0-2.2-1.7-2.3-3.5-2.3h-3.3V54.2z"/>
		<path fill="#FFFFFF" d="M114,49.7h6.5v2.8h0.1c1.1-2.1,2.5-3.3,5-3.3c0.7,0,1.3,0.1,2,0.3v6c-0.7-0.2-1.3-0.4-2.7-0.4
			c-2.7,0-4.1,1.6-4.1,5.3v7H114V49.7z"/>
		<path fill="#FFFFFF" d="M133.1,60c0.2,2,1.3,3.4,3.4,3.4c1.1,0,2.3-0.4,2.8-1.3h6.3c-1.4,3.8-5.1,5.6-9.1,5.6
			c-5.6,0-9.9-3.3-9.9-9.2c0-5.1,3.7-9.3,9.3-9.3c7,0,10,3.9,10,10.8H133.1z M139.6,56.5c0-1.6-1.2-3-3-3c-2,0-3.2,1.1-3.5,3H139.6z
			"/>
		<path fill="#FFFFFF" d="M157.4,54.8c0-0.6-0.3-1-0.8-1.3c-0.4-0.3-1-0.5-1.5-0.5c-1,0-2,0.2-2,1.4c0,0.5,0.4,0.7,0.8,0.9
			c1.1,0.5,3.7,0.6,5.9,1.4c2.2,0.7,4.2,2,4.2,4.9c0,4.9-4.7,6.2-9,6.2c-4.1,0-8.7-1.7-8.8-6.2h6.4c0,0.6,0.3,1.1,0.8,1.6
			c0.3,0.3,1,0.5,1.8,0.5c0.9,0,2.3-0.3,2.3-1.4c0-1-0.6-1.3-3.7-1.9c-5.1-0.9-7.2-2.5-7.2-5.5c0-4.5,4.8-5.6,8.3-5.6
			c3.8,0,8.4,1.1,8.6,5.6H157.4z"/>
		<path fill="#FFFFFF" d="M175.2,54.8c0-0.6-0.3-1-0.8-1.3c-0.4-0.3-1-0.5-1.5-0.5c-1,0-2,0.2-2,1.4c0,0.5,0.4,0.7,0.8,0.9
			c1.1,0.5,3.7,0.6,5.9,1.4c2.2,0.7,4.2,2,4.2,4.9c0,4.9-4.7,6.2-9,6.2c-4.1,0-8.7-1.7-8.8-6.2h6.4c0,0.6,0.3,1.1,0.8,1.6
			c0.3,0.3,1,0.5,1.8,0.5c0.9,0,2.3-0.3,2.3-1.4c0-1-0.6-1.3-3.7-1.9c-5.1-0.9-7.2-2.5-7.2-5.5c0-4.5,4.8-5.6,8.3-5.6
			c3.8,0,8.4,1.1,8.6,5.6H175.2z"/>
		<path fill="#FFFFFF" d="M201.1,67.3h-6.5v-2.2h-0.1c-1.3,1.8-3.1,2.7-5.7,2.7c-3.2,0-6.1-1.9-6.1-6V49.7h6.7V59
			c0,2,0.2,3.5,2.2,3.5c1.2,0,2.7-0.6,2.7-3.4v-9.3h6.7V67.3z"/>
		<path fill="#FFFFFF" d="M203.1,49.7h6.5v2.8h0.1c1.1-2.1,2.5-3.3,5-3.3c0.7,0,1.3,0.1,2,0.3v6c-0.7-0.2-1.3-0.4-2.7-0.4
			c-2.7,0-4.1,1.6-4.1,5.3v7h-6.7V49.7z"/>
		<path fill="#FFFFFF" d="M222.2,60c0.2,2,1.3,3.4,3.4,3.4c1.1,0,2.3-0.4,2.8-1.3h6.3c-1.4,3.8-5.1,5.6-9.1,5.6
			c-5.6,0-9.9-3.3-9.9-9.2c0-5.1,3.7-9.3,9.3-9.3c7,0,10,3.9,10,10.8H222.2z M228.7,56.5c0-1.6-1.2-3-3-3c-2,0-3.2,1.1-3.5,3H228.7z
			"/>
		<path fill="#FFFFFF" d="M261.3,52.1c-0.1-0.9-0.8-3.6-3.9-3.6c-3.5,0-4.6,3.4-4.6,6.7s1.1,6.7,4.6,6.7c2.5,0,3.5-1.8,3.9-4h7.3
			c0,4.9-4,10.1-11.1,10.1c-7.9,0-12.3-5.5-12.3-12.7c0-7.6,4.8-12.7,12.3-12.7c6.7,0,10.3,3.5,11,9.6H261.3z"/>
		<path fill="#FFFFFF" d="M270.1,43.1h6.7v24.3h-6.7V43.1z"/>
		<path fill="#FFFFFF" d="M284.7,60c0.2,2,1.3,3.4,3.4,3.4c1.1,0,2.3-0.4,2.8-1.3h6.3c-1.4,3.8-5.1,5.6-9.1,5.6
			c-5.6,0-9.9-3.3-9.9-9.2c0-5.1,3.7-9.3,9.3-9.3c7,0,10,3.9,10,10.8H284.7z M291.1,56.5c0-1.6-1.2-3-3-3c-2,0-3.2,1.1-3.5,3H291.1z
			"/>
		<path fill="#FFFFFF" d="M315.9,63.4c0,1.3,0.1,2.8,0.8,3.9h-6.9c-0.2-0.5-0.3-1.2-0.2-1.7h-0.1c-1.4,1.6-3.5,2.1-5.7,2.1
			c-3.4,0-6.2-1.6-6.2-5.3c0-5.6,6.5-5.4,10-6c0.9-0.2,1.8-0.4,1.8-1.6c0-1.2-1.1-1.6-2.2-1.6c-2.1,0-2.5,1.1-2.5,1.8h-6.3
			c0.2-5,4.9-5.8,9.1-5.8c8.4,0,8.4,3.5,8.4,6.9V63.4z M309.5,59.4c-0.8,0.4-1.7,0.6-2.7,0.9c-1.5,0.3-2.3,0.7-2.3,1.9
			c0,0.8,0.9,1.6,2.1,1.6c1.5,0,2.7-0.9,2.8-2.8V59.4z"/>
		<path fill="#FFFFFF" d="M317.8,49.7h6.5v2.2h0.1c1.3-1.8,3.1-2.7,5.7-2.7c3.2,0,6.1,1.9,6.1,6v12.1h-6.7v-9.2c0-2-0.2-3.5-2.2-3.5
			c-1.2,0-2.7,0.6-2.7,3.4v9.3h-6.7V49.7z"/>
		<path fill="#FFFFFF" d="M345,47.8h-6.7v-4.7h6.7V47.8z M338.3,49.7h6.7v17.6h-6.7V49.7z"/>
		<path fill="#FFFFFF" d="M347.1,49.7h6.5v2.2h0.1c1.3-1.8,3.1-2.7,5.7-2.7c3.2,0,6.1,1.9,6.1,6v12.1h-6.7v-9.2c0-2-0.2-3.5-2.2-3.5
			c-1.2,0-2.7,0.6-2.7,3.4v9.3h-6.7V49.7z"/>
		<path fill="#FFFFFF" d="M385.5,65.1c0,3.5-0.9,8.4-9.2,8.4c-4.2,0-8.6-1.1-9.2-5.9h6.7c0.1,0.2,0.2,0.4,0.4,0.6
			c0.4,0.6,1.1,1.3,2,1.3c2.2,0,2.7-2.6,2.7-4v-1.6h-0.1c-1.1,1.6-2.7,2.4-4.7,2.4c-5.2,0-7.5-3.9-7.5-8.6c0-4.6,2.6-8.4,7.6-8.4
			c2,0,3.8,0.8,4.6,2.6h0.1v-2.1h6.7V65.1z M376.1,62c2.5,0,2.8-2.4,2.8-4.4c0-1.9-1-3.5-2.9-3.5c-1.9,0-2.9,1.6-2.9,3.5
			C373.1,59.7,373.7,62,376.1,62z"/>
	</g>
</g>
<g>
</g>
<g>
</g>
<g>
</g>
<g>
</g>
<g>
</g>
<g>
</g>
<g>
</g>
<g>
</g>
<g>
</g>
<g>
</g>
<g>
</g>
<g>
</g>
<g>
</g>
<g>
</g>
<g>
</g>
</svg>
